<!-- Generator: Adobe Illustrator 21.1.0, SVG Export Plug-In  -->
<svg version="1.1"
	 xmlns="http://www.w3.org/2000/svg" xmlns:xlink="http://www.w3.org/1999/xlink" xmlns:a="http://ns.adobe.com/AdobeSVGViewerExtensions/3.0/"
	 x="0px" y="0px" width="180px" height="180px" viewBox="0 0 180 180" style="overflow:scroll;enable-background:new 0 0 180 180;"
	 xml:space="preserve">
<style type="text/css">
	.st0{fill:#B3B3B3;}
	.st1{fill:#FDA102;}
	.st2{fill:#FFFFFF;}
</style>
<defs>
</defs>
<path class="st0" d="M0,90h6.01C6.25,46.97,39.04,11.67,81,7.43V0.44C35.52,4.96,0,43.33,0,90z"/>
<path class="st1" d="M180,90c0,49.71-40.29,90-90,90S0,139.71,0,90h6.01C6,90.17,6,90.33,6,90.5C6,136.62,43.38,174,89.5,174
	S173,136.62,173,90.5S135.62,7,89.5,7c-2.87,0-5.7,0.14-8.5,0.43V0.44C83.96,0.15,86.96,0,90,0C139.71,0,180,40.29,180,90z"/>
<path class="st2" d="M173,90.5c0,46.12-37.38,83.5-83.5,83.5S6,136.62,6,90.5c0-0.17,0-0.33,0.01-0.5
	C6.25,46.97,39.04,11.67,81,7.43C83.8,7.14,86.63,7,89.5,7C135.62,7,173,44.38,173,90.5z"/>
</svg>
