<!-- Generator: Adobe Illustrator 21.1.0, SVG Export Plug-In  -->
<svg version="1.1"
	 xmlns="http://www.w3.org/2000/svg" xmlns:xlink="http://www.w3.org/1999/xlink" xmlns:a="http://ns.adobe.com/AdobeSVGViewerExtensions/3.0/"
	 x="0px" y="0px" width="319.5px" height="418.5px" viewBox="0 0 319.5 418.5"
	 style="overflow:scroll;enable-background:new 0 0 319.5 418.5;" xml:space="preserve">
<style type="text/css">
	.st0{opacity:0.2;fill:none;stroke:#F7931E;stroke-width:3;stroke-miterlimit:10;}
	.st1{opacity:0.8;fill:none;stroke:#F7931E;stroke-width:3;stroke-miterlimit:10;}
	.st2{fill:none;stroke:#F7931E;stroke-width:3;stroke-miterlimit:10;}
	.st3{fill:#F7931E;}
	.st4{fill:#FFFFFF;}
</style>
<defs>
</defs>
<polyline class="st0" points="1.5,277.5 1.5,414.5 140.5,414.5 "/>
<polyline class="st0" points="318,277.5 318,414.5 184.5,414.5 "/>
<polyline class="st0" points="1.5,129.5 1.5,1.5 318,1.5 318,129.5 "/>
<polyline class="st1" points="11.5,277.5 11.5,402.5 140.5,402.5 "/>
<polyline class="st1" points="306.75,277.5 306.75,402.5 184.5,402.5 "/>
<polyline class="st1" points="11.5,129.5 11.5,13.5 306.75,13.5 306.75,129.5 "/>
<polyline class="st2" points="295.5,129.5 295.5,27.5 21.5,27.5 21.5,129.5 "/>
<polyline class="st2" points="21.5,277.5 21.5,388.5 140.5,388.5 "/>
<polyline class="st2" points="295.5,277.5 295.5,388.5 184.5,388.5 "/>
<circle class="st3" cx="163" cy="402" r="16.5"/>
<polygon class="st4" points="172.73,403.66 164.48,403.74 164.48,412.73 161.49,412.73 161.49,403.78 153.28,403.86 153.25,400.87
	161.49,400.79 161.49,393.29 164.48,393.29 164.48,400.75 172.69,400.67 "/>
</svg>
