<?xml version="1.0" standalone="no"?><!DOCTYPE svg PUBLIC "-//W3C//DTD SVG 1.1//EN" "http://www.w3.org/Graphics/SVG/1.1/DTD/svg11.dtd"><svg t="1500465223964" class="icon" style="" viewBox="0 0 1024 1024" version="1.1" xmlns="http://www.w3.org/2000/svg" p-id="3815" xmlns:xlink="http://www.w3.org/1999/xlink" width="200" height="200"><defs><style type="text/css"></style></defs><path d="M294.844 480.174l-1.198-3.727-0.973-4.844-0.645-2.652v-10.926l1.157-4.301 1.178-4.547 1.556-4.772 2.099-5.315 2.755-5.519 3.891-5.53v-3.871l0.379-3.625 0.604-4.925 1.669-5.54 1.536-5.98 1.229-2.744 1.413-2.56 1.823-2.847 1.987-2.12v-13.67l1.147-7.045 1.157-8.182 2.058-9.789 2.836-10.189 2.109-5.601 2.089-6.093 2.294-5.683 2.744-6.093 2.796-6.666 3.215-6.246 3.615-6.666 4.557-6.656 2.109-3.82 2.243-3.123 4.884-7.045 5.028-7.025 5.704-7.229 6.113-7.035 6.636-6.932 6.922-7.127 8.376-7.69 5.315-4.68 6.482-5.048 6.574-4.454 7.107-4.28 6.83-3.809 7.7-3.154 8.182-3.881 8.131-2.662 8.11-2.765 8.765-2.744 8.755-2.089 9.206-1.741 9.339-1.505 9.216-1.229 9.206-1.26 9.82-0.532h29.010l9.667 1.219 9.718 1.157 9.902 1.034 9.196 2.212 9.708 2.068 9.114 2.376 9.984 2.652 9.134 3.236 8.745 3.697 9.339 3.912 8.52 4.27 8.284 4.751 8.12 5.233 6.994 4.864 3.246 2.744 3.4 2.007 6.492 5.509 5.468 5.325 5.458 5.509 5.315 6.083 4.383 5.898 5.222 6.093 3.635 6.543 3.686 5.816 3.912 6.769 3.246 5.888 5.458 12.462 2.683 6.441 2.099 5.97 2.099 6.482 1.884 6.093 1.311 5.243 1.7 6.164 2.98 11.008 1.905 9.636 1.239 9.318 1.065 7.496 1.679 11.418 0.379 1.812 1.341 2.058 3.615 5.908 2.324 4.004 2.058 4.168 2.621 4.465 2.314 5.356 1.505 5.478 1.638 6.011 1.239 6.164 0.563 3.031 0.522 3.738v3.246l-0.522 3.215v4.004l-0.942 3.881-1.72 7.516-1.976 3.799-1.464 4.27v1.065l0.696 1.321 1.966 3.123 8.561 12.667 6.758 9.513 3.236 6.349 4.362 6.953 3.799 7.619 4.383 8.141 4.383 9.155 4.936 10.363 2.785 6.349 2.54 6.205 2.191 6.543 2.161 5.888 1.649 6.185 1.679 5.806 2.12 11.325 1.679 11.571 1.157 10.26v14.479l-0.778 5.13-1.106 8.858-1.516 7.956-2.355 7.219-0.881 2.939-1.649 3.543-1.372 2.468-1.843 3.041-1.618 1.915-2.058 2.478-1.843 1.997-1.966 1.71-2.355 1.034-2.12 1.034-1.741 0.573h-2.662l-1.7-0.573-3.236-1.597-3.041-2.181-1.7-1.526-1.72-1.71-2.836-3.154-3.359-4.454-2.642-4.598-2.642-3.676-2.58-4.28-3.635-7.598-4.086-7.905-0.481-0.276h-0.676l-1.659 1.239-0.963 2.079-1.597 2.58-2.785 7.68-4.198 10.926-5.376 13.148-4.045 6.554-4.239 6.84-5.038 7.69-5.345 7.526-2.734 3.41-3.318 3.717-7.629 7.496 0.666 0.676 1.034 1.075 3.809 2.232 15.872 7.629 6.922 3.901 6.605 3.789 6.533 4.772 5.827 4.915 2.816 2.222 2.12 2.56 2.181 2.97 1.802 3.215 0.973 2.673 1.188 3.205 0.512 2.775 0.563 3.236-0.563 2.171v2.202l-0.512 2.273-1.188 2.079-0.451 1.628-1.085 1.976-2.877 3.922-2.662 3.144-2.058 2.355-1.72 1.741-4.383 3.195-4.956 2.785-5.284 2.662-5.663 2.56-6.318 2.478-3.4 1.034-2.98 0.84-7.342 1.71-7.578 1.628-7.619 1.618-8.284 1.352-8.54 0.358-8.755 1.055h-27.177l-9.8-0.573-9.124-0.84-9.841-1.352-9.759-1.044-10.281-1.434-9.964-2.478-9.718-1.874-9.656-2.765-9.902-3.543-9.718-2.929-5.12-1.71-4.547-1.618-2.877-1.116-2.857-0.604h-8.079l-9.339-0.655-4.721-0.481-6.083-0.676-3.901 3.533-5.325 3.328-7.219 3.512-7.987 4.383-4.854 2.376-5.069 1.884-11.192 4.577-6.083 1.526-6.38 1.72-8.847 1.72-5.54 0.43-5.857 0.502-6.113 0.676-7.117 0.266h-29.071l-16.415-0.266-15.944-1.608-8.069-1.147-15.38-2.294-7.588-1.526-7.076-2.284-7.035-1.628-6.349-2.55-6.001-2.376-5.601-2.673-4.864-2.918-4.823-3.553-1.649-1.72-2.161-2.079-1.638-1.812-1.475-2.089-1.362-2.079-1.055-2.099-1.526-4.454-0.532-2.304-0.676-2.56v-2.365l0.676-2.673v-2.652l0.532-2.652v-5.356l0.256-2.826 1.27-3.236 1.055-3.236 1.915-3.901 1.403-1.505 1.157-1.741 3.021-3.697 2.406-1.905 2.273-1.331 2.099-1.69 3.318-1.055 2.662-1.618 3.318-1.71 3.779-1.137 3.799-1.157 4.403-0.963 4.168-0.553 4.946-0.645 5.366-0.41 1.393-0.461h0.307l0.676-0.573v-0.655l-0.983-1.331-2.847-1.352-7.117-6.164-4.782-3.809-5.53-4.844-5.571-5.417-5.796-6.922-6.676-7.803-2.488-4.219-3.297-4.362-2.847-5.038-2.56-5.509-3.451-5.243-2.253-5.98-2.683-5.97-2.683-6.656-1.946-6.38-1.853-7.885-0.553-0.287h-0.563l-0.287-0.563h-0.686l-1.126 0.563-0.563 0.287-0.778 1.321-0.276 1.608-0.584 1.434-1.014 2.386-3.256 5.796-1.69 3.512-2.683 3.062-2.847 3.686-3.144 4.086-3.318 3.625-3.901 3.512-3.604 3.297-3.994 2.621-4.362 2.734-4.198 1.628-4.946 1.239-4.854 0.471h-1.147l-1.116-0.471-0.881-1.925-1.423-0.942-1.864-4.567-1.167-2.468-1.249-3.543-1.034-3.676-0.553-3.625-1.536-8.253-0.584-4.864v-15.954l0.584-11.909 0.963-6.083 1.126-6.267 1.034-6.748 1.833-6.277 2.058-7.229 2.12-7.045 2.836-7.25 2.673-6.912 3.697-7.014 3.43-7.608 4.198-7.137 4.936-7.7 5.018-6.922 5.243-7.7 4.372-5.366 5.601-6.144 5.898-6.195 2.744-2.949 3.328-3.318 4.833-4.188 4.966-4.27 8.079-7.24 6.093-4.454z" p-id="3816" fill="#ffffff"></path></svg>
