<?xml version="1.0" standalone="no"?><!DOCTYPE svg PUBLIC "-//W3C//DTD SVG 1.1//EN" "http://www.w3.org/Graphics/SVG/1.1/DTD/svg11.dtd"><svg t="1500465470855" class="icon" style="" viewBox="0 0 1024 1024" version="1.1" xmlns="http://www.w3.org/2000/svg" p-id="5290" xmlns:xlink="http://www.w3.org/1999/xlink" width="200" height="200"><defs><style type="text/css"></style></defs><path d="M-21.034-17.584v0 0z" p-id="5291" fill="#ffffff"></path><path d="M728.857 477.875q-15.523-3.111-20.157-9.301t-1.555-11.386l3.111-5.164q1.026-1.026 2.085-3.111t4.138-8.804 4.667-13.438 2.581-16.549-0.529-18.635-6.223-19.132-12.942-18.635q-14.497-14.497-37.766-18.635t-46.538-0.529-43.955 9.301-34.125 10.857l-13.438 6.223q-10.359 3.111-17.079 4.138t-10.359-0.529-5.693-3.111-1.555-7.249 1.026-9.83 2.581-12.942 3.111-13.968q0-12.412-1.555-23.268t-6.719-24.294-14.994-21.713-24.825-13.438-38.793-3.111-53.786 12.412q-36.21 12.412-73.446 36.707t-64.642 50.674-50.178 51.204-35.184 40.348l-11.386 16.549q-34.125 44.485-50.674 88.97t-15.523 67.225v21.713q6.223 49.648 30.517 88.97t57.923 63.616 79.139 41.374 87.414 24.825 88.441 10.857q76.558 6.223 158.775-11.883t153.083-62.59 99.826-106.546q17.575-36.21 18.106-68.284t-10.857-52.23-29.491-35.681-34.125-22.772-28.432-9.301zM413.39 799.564q-111.709 5.164-189.79-43.459t-78.080-123.095q0-73.446 77.584-126.703t190.319-58.453 190.319 37.236 77.584 115.846q0 74.473-79.139 133.952t-188.764 64.642zM383.403 513.026q-29.987 3.111-53.786 13.968t-37.236 24.825-22.772 29.987-12.942 31.543-4.667 28.432-1.026 20.157l1.026 8.275v4.138q0 3.111 2.085 12.412t5.693 17.079 11.883 17.079 19.661 15.523q68.284 33.099 127.232 20.157t95.159-59.478q14.497-17.575 19.132-43.459t-2.085-52.23-23.268-48.093-49.119-33.629-75.003-6.719zM346.166 708.542q-6.223 1.026-11.883 0.529t-10.359-2.085-9.301-3.607-7.745-5.693-5.693-7.249-4.138-8.275-1.555-9.83q0-11.386 6.223-22.242t17.079-18.635 24.294-8.804q9.301-1.026 18.106 0.529t14.994 5.164 10.857 8.275 6.719 10.857 2.085 13.438q0 11.386-6.719 21.713t-18.106 17.575-24.825 8.275zM434.077 634.069q-7.249 5.164-14.994 4.667t-10.857-6.719l-2.085-4.138q-1.026-2.085-1.026-4.138v-4.138q0-3.111 1.026-5.164l2.085-4.138q1.026-2.085 3.111-3.111l3.111-4.138q8.275-6.223 16.020-5.164t10.857 8.275q3.111 4.138 2.581 9.301t-3.111 9.83-6.719 8.804zM801.277 417.867q6.223 0 11.386-3.111t8.275-7.745 4.138-9.83q1.026-1.026 1.026-3.111 12.412-117.932-82.748-134.481-27.936-5.164-51.733-1.026-7.249 0-12.412 3.607t-8.804 9.301-3.607 11.883q0 10.359 7.249 17.575t17.575 7.249q80.695-18.635 86.885 51.733 2.085 17.575-2.085 33.099 0 10.359 7.249 17.575t17.575 7.249zM783.702 126.198q-45.511-10.359-122.069 4.138-1.026 0-2.085 1.026l-1.026 2.085-1.026 1.026q-11.386 3.111-18.635 12.942t-7.249 21.216q0 15.523 10.359 25.851t24.825 10.359h3.111q1.026 0 4.667-1.026t7.745-1.555 8.804-2.085 8.275-3.111 13.968-1.555 25.354 1.555 33.099 7.745 36.21 15.523 36.21 25.851 31.543 38.262q26.91 61.035 10.359 117.932 0 1.026-0.529 2.085t-1.555 5.164-2.085 7.745-2.085 9.301-1.026 9.83q0 9.301 5.164 15.523t12.942 8.804 18.106 2.581q28.962 0 34.125-35.184 12.412-40.348 13.968-77.055t-5.164-64.642-20.157-52.23-31.046-41.374-39.322-31.046-41.903-22.242-41.903-13.438z" p-id="5292" fill="#ffffff"></path></svg>
